<svg width="21" height="21" viewBox="0 0 21 21" fill="none" xmlns="http://www.w3.org/2000/svg">
<path d="M20.1721 8.37849C20.1221 7.97763 20.0576 7.57586 19.9021 7.19738C19.759 6.84885 19.5075 6.68336 19.1305 6.68518C18.8059 6.68669 18.5191 6.82042 18.2321 6.9496C17.7611 7.16138 17.3326 7.45333 16.8637 7.66904C16.5664 7.80579 16.26 7.8666 15.9281 7.81275C15.5711 7.75496 15.2092 7.72471 14.8495 7.68296C14.3803 7.6288 13.9111 7.57525 13.442 7.5217C13.0274 7.47451 12.6127 7.42519 12.1978 7.38223C11.8023 7.34139 11.4062 7.3072 11.0101 7.2709C10.6451 7.23732 10.286 7.23126 9.96989 7.46573C9.83896 7.56285 9.72257 7.67448 9.62801 7.80488C9.40464 8.11347 9.47071 8.4027 9.81895 8.59118C10.8588 9.15451 11.9238 9.66883 12.9852 10.1898C13.0886 10.2403 13.114 10.2576 13.0083 10.3344C12.4957 10.7062 11.9857 11.0823 11.4774 11.4599C11.4131 11.5077 11.3528 11.5328 11.271 11.5273C10.8088 11.4965 10.3506 11.4296 9.88987 11.3876C9.56437 11.3576 9.24159 11.2859 8.91214 11.3101C8.75151 11.3219 8.65573 11.4148 8.62724 11.5688C8.59724 11.7312 8.66392 11.8529 8.78091 11.9536C9.12854 12.2519 9.47708 12.5493 9.82623 12.8461C10.0269 13.0164 10.0278 13.0155 9.84714 13.2007C8.97185 14.0977 7.89501 14.3473 6.78028 13.8768C5.81012 13.4675 5.15274 12.7423 4.78268 11.7621C4.37595 10.6845 4.37413 9.57988 4.63721 8.47652C4.97878 7.04399 5.75375 5.87982 6.94576 5.01123C8.09746 4.17198 9.39555 3.83253 10.8173 3.95718C11.4686 4.01436 12.0827 4.19407 12.6727 4.47029C13.1865 4.71081 13.6259 5.06115 14.0812 5.38971C14.7722 5.88829 15.5244 6.03018 16.3285 5.711C17.0453 5.42662 17.5572 4.70657 17.5096 3.90545C17.4847 3.48824 17.3262 3.11794 17.0759 2.78787C16.5894 2.14588 15.9454 1.69267 15.2541 1.30119C13.6599 0.399618 11.9402 -0.0124412 10.1132 0.000567994C9.72985 -0.0039701 9.34827 0.0190229 8.96669 0.0574454C8.21627 0.132778 7.48403 0.289493 6.77301 0.538483C4.64145 1.28455 2.93511 2.5894 1.67157 4.45667C0.698387 5.89404 0.15739 7.48842 0.0291876 9.21895C-0.0217297 9.90783 -0.00718194 10.5955 0.0819234 11.2829C0.194972 12.1548 0.400763 13.0019 0.75082 13.8076C1.72189 16.0421 3.27153 17.7469 5.45128 18.8621C7.13428 19.7231 8.91456 20.1322 10.8115 19.9978C11.655 19.9382 12.4767 19.7839 13.2807 19.5192C15.3508 18.8376 17.0177 17.6014 18.3264 15.8751C19.6208 14.1676 20.2037 12.2177 20.2619 10.0963C20.2776 9.52179 20.2431 8.94787 20.1718 8.37849H20.1721ZM19.1984 7.96946C19.0335 8.28834 18.7922 8.55397 18.5619 8.82595C18.0663 9.41076 17.539 9.96652 16.9974 10.5084C16.8971 10.6088 16.9025 10.7371 16.8777 10.856C16.6301 12.0441 16.4115 13.2379 16.1469 14.4226C16.0748 14.7454 15.9348 15.0298 15.6614 15.2286C15.5272 15.326 15.3808 15.398 15.1989 15.3393C14.9707 15.2658 14.9422 15.0701 14.9174 14.8849C14.8031 14.0351 14.6882 13.1846 14.6452 12.2958C14.2369 12.5856 13.846 12.8646 13.4535 13.142C12.5758 13.7619 11.7096 14.3981 10.7988 14.9693C9.96807 15.4903 9.07762 15.8769 8.11019 16.0527C6.89939 16.2727 5.72253 16.1232 4.58538 15.654C4.00771 15.4156 2.84146 14.6335 2.88571 14.5512C2.89056 14.504 2.97694 14.5567 3.0721 14.5914C3.5437 14.7642 4.00165 14.9733 4.48567 15.1127C5.66707 15.4531 6.84787 15.509 8.03351 15.1257C8.84304 14.864 9.54406 14.4136 10.2078 13.8989C11.3374 13.0228 12.4373 12.1097 13.5465 11.2084C14.7685 10.2155 15.9812 9.21048 17.2462 8.2723C17.7087 7.92922 18.1885 7.60732 18.7483 7.43578C18.9065 7.38737 19.0859 7.34562 19.2138 7.49024C19.3478 7.64181 19.2775 7.81819 19.1993 7.96946H19.1984Z" fill="#7F7F7F"/>
</svg>
