<svg width="96" height="21" viewBox="0 0 96 21" fill="none" xmlns="http://www.w3.org/2000/svg">
<path d="M88.2014 1.22337C89.5312 1.22337 90.3251 2.39445 90.3251 3.70447C90.3251 8.21015 86.3357 10.3737 81.9891 10.6516C81.2547 10.6912 80.3418 10.4332 80.2624 9.46062C80.183 8.38879 80.9173 7.97196 81.7509 7.91242C85.0456 7.73378 86.7128 6.82073 86.9312 4.45873C86.9709 4.02205 86.7327 3.92281 86.2365 3.92281H81.7509C81.1555 3.92281 80.4013 3.64493 80.4013 2.57309C80.4013 1.58065 81.1952 1.22337 81.7509 1.22337H88.2014ZM84.4899 7.03907H81.2547C80.5998 7.03907 80.0837 6.6024 80.1036 5.7092C80.0837 4.87555 80.6593 4.37933 81.2547 4.37933H84.4899C85.1052 4.37933 85.6808 4.75646 85.7006 5.7092C85.6808 6.46346 85.2838 7.03907 84.4899 7.03907ZM95.803 2.35476C96.0611 4.63737 96.0214 7.05892 95.803 9.32168C95.7237 10.1553 94.9694 10.85 93.9969 10.7309C93.0045 10.6119 92.4488 9.8576 92.4885 9.06365C92.5282 8.56743 92.5679 8.09106 92.5877 7.63453H91.3175C90.5236 7.63453 90.1266 6.72149 90.1266 6.04663C90.1266 5.27253 90.7022 4.49843 91.4167 4.49843H92.5877C92.5679 3.92281 92.5282 3.32735 92.4885 2.63264C92.4488 1.85854 92.9648 1.10428 93.9374 0.985189C94.9099 0.866097 95.684 1.50126 95.803 2.35476ZM92.7267 14.6015C92.7267 14.403 92.7068 14.1052 92.1511 14.1052H85.5815C85.0853 14.1052 85.0655 14.3236 85.0655 14.4625C85.0456 14.6809 85.0456 14.919 85.0655 15.1374C85.0655 15.3954 85.2044 15.5344 85.522 15.5939C86.4151 15.7328 87.8045 15.8321 88.9953 15.8321C90.2457 15.8321 91.4366 15.7725 92.3099 15.6137C92.5877 15.5741 92.7068 15.4351 92.7267 15.1572C92.7267 14.9786 92.7465 14.7801 92.7267 14.6015ZM94.2351 18.1941C92.7068 18.6903 90.6427 18.7896 88.8365 18.8094C86.9907 18.8094 84.6487 18.6308 83.4777 18.1742C82.9021 17.9361 82.128 17.3604 81.9494 16.4871C81.7311 15.4748 81.7509 13.6884 81.9296 12.6166C82.1082 11.6043 82.9021 11.1875 83.4578 11.1875H94.3542C94.9099 11.1875 95.7832 11.6638 95.8824 12.6166C96.0015 13.6884 96.0809 15.4748 95.8626 16.4871C95.684 17.3009 94.9297 17.9758 94.2351 18.1941Z" fill="#056DFF"/>
<path d="M70.5552 7.19745C71.447 6.95928 72.438 7.11806 72.7155 8.20967C72.9533 9.12266 72.3984 9.69824 71.7642 10.0356C70.7732 10.5517 68.7912 10.77 67.4435 10.77C66.0363 10.77 64.4903 10.4326 63.7372 10.115C63.2021 9.85701 62.4489 9.34098 62.2309 8.44784C61.9138 7.01882 61.9931 3.94246 62.2309 2.59283C62.3894 1.6997 63.1624 1.22336 63.7174 1.22336H71.0903C71.7642 1.22336 72.3587 1.93787 72.3587 2.75161C72.3587 3.42643 71.9425 4.33941 71.0903 4.33941H65.7588C65.5408 4.33941 65.402 4.43865 65.3822 4.65697C65.3228 5.41118 65.2831 6.06614 65.3426 6.82035C65.3624 7.15776 65.5011 7.35623 65.8183 7.43562C66.2741 7.53486 66.8687 7.5944 67.5624 7.5944C68.7516 7.5944 69.8416 7.39593 70.5552 7.19745ZM76.9173 2.35467C76.9966 3.10887 77.056 4.02185 77.0758 4.99438H78.0866C78.8001 4.99438 79.3749 5.76843 79.3749 6.54248C79.3749 7.2173 78.9785 8.13028 78.1857 8.13028H77.0758C77.0362 9.08296 76.9767 9.9761 76.9173 10.7105C76.838 11.5441 76.0849 12.2387 75.1137 12.1196C74.1227 12.0005 73.5677 11.2463 73.6074 10.4524C73.8056 8.05089 73.7858 5.11347 73.6074 2.63253C73.5677 1.85848 74.0831 1.10427 75.0542 0.985188C76.0254 0.866104 76.7984 1.50122 76.9173 2.35467ZM64.8273 18.7685C64.2129 18.8876 63.1426 18.8082 62.8453 17.6769C62.6273 16.8235 63.0831 15.97 63.9354 15.7914C66.4327 15.2555 68.811 13.8662 68.811 12.4372V12.3578C68.811 11.7227 69.4849 11.1273 70.3966 11.1273C71.3083 11.1273 72.1407 11.6234 72.1407 12.3578V12.6158C72.1407 15.5929 68.2561 18.1334 64.8273 18.7685ZM74.0632 14.1838L76.9569 15.6922C77.7299 16.0891 78.0668 17.1609 77.5713 17.9151C76.9767 18.8281 75.9461 18.8082 75.2524 18.451L72.4182 16.9823C71.7245 16.625 71.3876 15.6326 71.8038 14.7792C72.2596 13.8662 73.4687 13.8662 74.0632 14.1838Z" fill="#056DFF"/>
<path d="M50.5847 5.80733C50.5847 5.15326 50.0478 4.55865 48.5364 4.55865C46.866 4.55865 46.4484 5.13344 46.4484 5.76769C46.4484 6.50104 47.1643 7.056 48.5165 7.056C49.9483 7.056 50.5847 6.52086 50.5847 5.80733ZM50.187 1.20903V1.52616H53.0904C53.7267 1.52616 54.3233 2.20005 54.3233 2.97303C54.3233 3.56764 53.9057 4.38027 53.3489 4.38027H53.15C53.6273 4.75686 53.8858 5.56949 53.9057 6.20373C53.9654 8.26504 52.2551 9.29569 50.366 9.67227V10.4056C51.2211 10.366 52.0961 10.3065 53.0108 10.1876C53.8063 10.0885 54.7011 10.4254 54.8205 11.4759C54.9199 12.3678 54.1046 12.9426 53.4085 13.0615C51.0421 13.3588 46.5279 13.4381 43.7836 13.0615C43.028 12.9426 42.2723 12.4273 42.3717 11.4165C42.4712 10.3462 43.4456 10.0885 44.1615 10.1876C45.1359 10.2867 46.0904 10.3462 47.0251 10.4056V9.73173C45.0166 9.41461 43.0677 8.40378 43.1274 6.22355C43.1473 5.58931 43.5251 4.71722 43.903 4.38027H43.7041C43.1871 4.38027 42.7297 3.7262 42.7297 2.99285C42.7297 2.33879 43.2069 1.52616 43.8831 1.52616H46.8461V1.20903C46.8461 0.594606 47.6217 0 48.437 0C49.2126 0 50.187 0.475685 50.187 1.20903ZM58.6187 2.37843C58.7181 3.2307 58.7579 4.55865 58.7778 6.00553H59.3943C60.0903 6.00553 60.6869 6.77852 60.6869 7.55151C60.6869 8.2254 60.2494 9.13713 59.3943 9.13713H58.7579C58.738 10.5047 58.6983 11.7336 58.6187 12.5066C58.5789 13.339 57.7437 13.9931 56.8091 13.9138C55.9341 13.8345 55.2579 13.0417 55.2977 12.2489C55.4966 9.85066 55.4767 5.13344 55.2977 2.65591C55.2579 1.88292 55.7551 1.10993 56.7494 1.01083C57.7039 0.911731 58.4994 1.52616 58.6187 2.37843ZM57.9028 17.9175C56.3119 18.5914 53.7864 18.7896 51.937 18.8094C50.1273 18.8094 47.6416 18.7103 46.1302 18.1752C45.5336 17.9571 44.7382 17.3625 44.599 16.4904C44.5194 16.0147 44.4598 15.3409 44.5194 14.8652C44.6189 14.112 45.295 13.5769 46.2097 13.676C47.1046 13.7751 47.8404 14.1913 47.7609 15.0832V15.1427C47.7609 15.44 47.92 15.5985 48.3177 15.6778C49.4114 15.8958 50.9029 15.9156 52.0762 15.9156C53.7068 15.9156 55.417 15.6778 56.6699 15.2814C57.5051 15.0237 58.4 15.3012 58.6784 16.1337C58.8971 16.8076 58.5789 17.64 57.9028 17.9175Z" fill="#056DFF"/>
<path d="M39.1253 11.4745C38.9266 12.2638 38.0523 12.7373 37.2376 12.5597C36.3633 12.3624 35.787 11.6916 35.9063 10.8826C36.1248 9.38307 36.2639 7.40999 36.2242 5.73288C36.2242 5.53557 36.2043 5.18042 35.5883 5.18042H27.501C26.726 5.18042 26.2491 4.29254 26.2491 3.62169C26.2491 2.85219 26.9446 2.06296 27.501 2.06296H37.7145C38.251 2.06296 39.2445 2.49704 39.3836 3.44411C39.6419 5.21988 39.5625 9.75795 39.1253 11.4745ZM25.9511 16.9794C25.196 16.861 24.4011 16.1704 24.5402 15.2036C24.6793 14.2566 25.6132 13.7436 26.3286 13.8422C26.6664 13.8817 27.0638 13.9014 27.501 13.9409V9.97499C27.501 9.30414 28.3157 8.73195 29.1304 8.73195C29.9053 8.73195 30.8392 9.22522 30.8392 9.97499V14.0593C31.2366 14.079 31.6539 14.0987 32.0712 14.079V9.97499C32.0712 9.30414 32.8859 8.73195 33.7006 8.73195C34.4756 8.73195 35.4095 9.22522 35.4095 9.97499V14.0593C37.0389 14.0395 38.549 13.9606 39.5823 13.8422C40.3771 13.7436 41.3508 14.2566 41.3906 15.2628C41.4303 16.2888 40.6752 16.861 39.9797 16.9794C37.6151 17.2754 28.6932 17.3543 25.9511 16.9794Z" fill="#056DFF"/>
<path d="M20.1721 8.37849C20.1221 7.97763 20.0576 7.57586 19.9021 7.19738C19.759 6.84885 19.5075 6.68336 19.1305 6.68518C18.8059 6.68669 18.5191 6.82042 18.2321 6.9496C17.7611 7.16138 17.3326 7.45333 16.8637 7.66904C16.5664 7.80579 16.26 7.8666 15.9281 7.81275C15.5711 7.75496 15.2092 7.72471 14.8495 7.68296C14.3803 7.6288 13.9111 7.57525 13.442 7.5217C13.0274 7.47451 12.6127 7.42519 12.1978 7.38223C11.8023 7.34139 11.4062 7.3072 11.0101 7.2709C10.6451 7.23732 10.286 7.23126 9.96989 7.46573C9.83896 7.56285 9.72257 7.67448 9.62801 7.80488C9.40464 8.11347 9.47071 8.4027 9.81895 8.59118C10.8588 9.15451 11.9238 9.66883 12.9852 10.1898C13.0886 10.2403 13.114 10.2576 13.0083 10.3344C12.4957 10.7062 11.9857 11.0823 11.4774 11.4599C11.4131 11.5077 11.3528 11.5328 11.271 11.5273C10.8088 11.4965 10.3506 11.4296 9.88987 11.3876C9.56437 11.3576 9.24159 11.2859 8.91214 11.3101C8.75151 11.3219 8.65573 11.4148 8.62724 11.5688C8.59724 11.7312 8.66392 11.8529 8.78091 11.9536C9.12854 12.2519 9.47708 12.5493 9.82623 12.8461C10.0269 13.0164 10.0278 13.0155 9.84714 13.2007C8.97185 14.0977 7.89501 14.3473 6.78028 13.8768C5.81012 13.4675 5.15274 12.7423 4.78268 11.7621C4.37595 10.6845 4.37413 9.57988 4.63721 8.47652C4.97878 7.04399 5.75375 5.87982 6.94576 5.01123C8.09746 4.17198 9.39555 3.83253 10.8173 3.95718C11.4686 4.01436 12.0827 4.19407 12.6727 4.47029C13.1865 4.71081 13.6259 5.06115 14.0812 5.38971C14.7722 5.88829 15.5244 6.03018 16.3285 5.711C17.0453 5.42662 17.5572 4.70657 17.5096 3.90545C17.4847 3.48824 17.3262 3.11794 17.0759 2.78787C16.5894 2.14588 15.9454 1.69267 15.2541 1.30119C13.6599 0.399618 11.9402 -0.0124412 10.1132 0.000567994C9.72985 -0.0039701 9.34827 0.0190229 8.96669 0.0574454C8.21627 0.132778 7.48403 0.289493 6.77301 0.538483C4.64145 1.28455 2.93511 2.5894 1.67157 4.45667C0.698387 5.89404 0.15739 7.48842 0.0291876 9.21895C-0.0217297 9.90783 -0.00718194 10.5955 0.0819234 11.2829C0.194972 12.1548 0.400763 13.0019 0.75082 13.8076C1.72189 16.0421 3.27153 17.7469 5.45128 18.8621C7.13428 19.7231 8.91456 20.1322 10.8115 19.9978C11.655 19.9382 12.4767 19.7839 13.2807 19.5192C15.3508 18.8376 17.0177 17.6014 18.3264 15.8751C19.6208 14.1676 20.2037 12.2177 20.2619 10.0963C20.2776 9.52179 20.2431 8.94787 20.1718 8.37849H20.1721ZM19.1984 7.96946C19.0335 8.28834 18.7922 8.55397 18.5619 8.82595C18.0663 9.41076 17.539 9.96652 16.9974 10.5084C16.8971 10.6088 16.9025 10.7371 16.8777 10.856C16.6301 12.0441 16.4115 13.2379 16.1469 14.4226C16.0748 14.7454 15.9348 15.0298 15.6614 15.2286C15.5272 15.326 15.3808 15.398 15.1989 15.3393C14.9707 15.2658 14.9422 15.0701 14.9174 14.8849C14.8031 14.0351 14.6882 13.1846 14.6452 12.2958C14.2369 12.5856 13.846 12.8646 13.4535 13.142C12.5758 13.7619 11.7096 14.3981 10.7988 14.9693C9.96807 15.4903 9.07762 15.8769 8.11019 16.0527C6.89939 16.2727 5.72253 16.1232 4.58538 15.654C4.00771 15.4156 2.84146 14.6335 2.88571 14.5512C2.89056 14.504 2.97694 14.5567 3.0721 14.5914C3.5437 14.7642 4.00165 14.9733 4.48567 15.1127C5.66707 15.4531 6.84787 15.509 8.03351 15.1257C8.84304 14.864 9.54406 14.4136 10.2078 13.8989C11.3374 13.0228 12.4373 12.1097 13.5465 11.2084C14.7685 10.2155 15.9812 9.21048 17.2462 8.2723C17.7087 7.92922 18.1885 7.60732 18.7483 7.43578C18.9065 7.38737 19.0859 7.34562 19.2138 7.49024C19.3478 7.64181 19.2775 7.81819 19.1993 7.96946H19.1984Z" fill="#056DFF"/>
</svg>
